PathFileType	4	(X/Y/Z)	OpenSim_Sub01_CSBaseline_Accel.trc
DataRate	CameraRate	NumFrames	NumMarkers	Units	OrigDataRate	OrigDataStartFrame	OrigNumFrames
100	100	20	8	m	100	4463	5950
Frame#	Time	torso_imu_offset_imu	pelvis_imu_offset_imu	tibia_r_imu_offset_imu	femur_r_imu_offset_imu	tibia_l_imu_offset_imu	femur_l_imu_offset_imu	toes_r_imu_offset_imu	toes_l_imu_offset_imu
				X1	Y1	Z1	X2	Y2	Z2	X3	Y3	Z3	X4	Y4	Z4	X5	Y5	Z5	X6	Y6	Z6	X7	Y7	Z7	X8		Y8	Z8	

4463	44.62000000	8.81316440	0.25231682	6.61389650	9.32017544	-0.67082274	2.28597374	8.32670153	2.98468321	0.58822121	9.43560538	-4.64990454	2.37456054	9.71697923	-3.35861346	-0.76951787	9.69017565	1.19718545	-2.15813702	13.11061699	2.06424937	1.41933926	5.69654927	0.56336157	10.85275713
4464	44.63000000	8.87416308	0.25813177	6.59891999	9.26065024	-0.78107473	2.27155797	8.54076742	2.61090434	-0.29964088	8.92050030	-4.65273097	1.59622957	9.83014604	-3.12954385	-0.70301951	9.72796205	1.19832104	-2.17772086	12.99607652	2.46167417	0.36688338	5.66642142	0.48233993	10.89294880
4465	44.64000000	8.95150761	0.26477821	6.59464213	9.25120890	-0.88958743	2.21189694	9.12205270	1.80603255	-1.13378718	8.13237241	-4.38329212	0.64972600	9.98906799	-2.81648285	-0.66309275	9.81225536	1.16028678	-2.14816519	12.87107423	2.61550583	-0.50083314	5.57907588	0.49485158	10.96194864
4466	44.65000000	9.00492386	0.26665200	6.59356602	9.29007973	-0.97232952	2.07516925	9.33129014	0.89876755	-1.37251931	7.70403674	-3.89060751	-0.03618327	10.15141893	-2.55733238	-0.58577731	9.91056489	1.18499894	-2.05959734	12.75492265	2.56052403	-0.69318060	5.50626093	0.48821091	11.01882740
4467	44.66000000	9.01611688	0.26334111	6.59229277	9.36300723	-1.02100608	1.84728765	8.80733904	0.20383095	-0.82757261	7.89757156	-3.24492449	-0.21338804	10.27278931	-2.43188875	-0.44763357	9.98889198	1.32031669	-1.91377331	12.67889567	2.27838607	-0.18575490	5.49573249	0.41749433	11.03358686
4468	44.67000000	9.01655899	0.26603825	6.59686686	9.42846987	-1.06266271	1.55406390	8.04501586	-0.00164917	-0.10465352	8.13761344	-2.56112189	-0.04236502	10.30493330	-2.38858883	-0.31691558	10.01096754	1.49203933	-1.73854776	12.70195051	1.63245386	0.00095930	5.54024263	0.39153520	11.00139943
4469	44.68000000	9.04173738	0.28603559	6.61272657	9.44874316	-1.12340637	1.23240156	7.61723986	0.49786948	0.14787281	7.81849678	-1.95556054	0.27061434	10.20962650	-2.36542672	-0.26914303	9.94575978	1.61441740	-1.56523828	12.80134340	0.47518016	-1.08812055	5.62333041	0.52292920	10.92399007
4470	44.69000000	9.09907046	0.31944255	6.62586054	9.46338818	-1.17028882	0.97797877	7.70758724	1.33465398	-0.04969016	7.19151098	-1.49755719	0.61724757	10.05746043	-2.37607957	-0.32676045	9.81947636	1.65297644	-1.42445639	12.07221196	-1.28836249	-2.27333468	5.71025525	0.74833694	10.83556992
4471	44.70000000	9.17960482	0.35335795	6.61096382	9.55743677	-1.13558117	0.92092124	8.27010734	1.79752063	-0.28289410	7.01220341	-1.22860175	0.94701550	9.98302260	-2.47865616	-0.48076389	9.69210915	1.60373263	-1.34632894	9.09587305	-3.71966841	-1.12320721	5.75563352	0.90103801	10.78938134
4472	44.71000000	9.31388564	0.36341011	6.58087357	9.79031010	-0.96356894	1.14384353	9.29078240	1.30870899	-0.20294960	7.76716416	-1.17427448	1.20737016	10.07941783	-2.68578971	-0.69270087	9.62747376	1.51422391	-1.34654152	3.84229057	-6.37308009	3.20575836	5.74381705	0.90013870	10.81052503
4473	44.72000000	9.62106222	0.29989340	6.63385793	10.16297384	-0.62634805	1.62235656	10.83346476	-0.40193370	0.38106354	9.32832526	-1.32545936	1.33957023	10.34534639	-2.90736375	-0.85931826	9.69694344	1.54606769	-1.40857136	-0.60530975	-7.67231253	7.97774985	5.72581234	0.85922909	10.86076122
4474	44.73000000	10.20724351	0.11797455	6.86318276	10.66346000	-0.10705385	2.30745464	12.90309596	-3.43922500	1.58852550	11.45280454	-1.68901084	1.30277319	10.76360333	-3.04639284	-0.87838910	9.96240349	1.85505418	-1.50914860	-1.08462220	-6.11792645	10.28101740	5.75245581	0.90161752	10.90002810
4475	44.74000000	10.92014818	-0.14149161	7.19113797	11.22793222	0.53605888	3.04546759	14.78767196	-6.63080859	3.02078519	13.57100865	-2.48512190	1.24956781	11.28465354	-3.07850468	-0.74879744	10.37723288	2.37746363	-1.60033928	2.03428203	-2.58312845	10.38726537	5.77972131	0.97927436	10.95793082
4476	44.75000000	11.45571660	-0.38723006	7.43948260	11.76204961	1.20032355	3.62140316	15.35551834	-8.05506558	3.97492803	14.92205838	-4.05807742	1.44483700	11.83988666	-3.02209009	-0.52891863	10.83084360	2.92020043	-1.61985428	6.30040212	0.66200714	10.44147133	5.70795548	0.94348660	11.10484386
4477	44.76000000	11.64743829	-0.55512246	7.49986356	12.19122327	1.76229336	3.90943571	14.16676162	-6.67137329	4.02969347	15.05129683	-6.37932020	1.76911871	12.35998315	-2.88025223	-0.24425129	11.22156389	3.31461970	-1.54662053	9.86824388	1.93691142	11.59656054	5.50815143	0.72835671	11.34162205
4478	44.77000000	11.64008891	-0.64309836	7.42276541	12.48581596	2.05343606	3.98446259	12.33722461	-3.42645544	3.40104124	14.19284755	-8.58480359	1.24213578	12.77459127	-2.62075013	0.15477850	11.46946136	3.45036382	-1.45194303	12.30337226	0.91664412	12.73790055	5.31053775	0.45567431	11.51282753
4479	44.78000000	11.60423281	-0.66203928	7.27722347	12.61794328	1.91878727	3.94530120	11.08884984	0.45732004	2.38674697	12.68712014	-9.73564248	-1.03353383	13.02593058	-2.21270816	0.70734620	11.50933025	3.24310644	-1.41260576	13.38418176	-2.36220815	12.59187514	5.25307951	0.26581458	11.45980280
4480	44.79000000	11.54184595	-0.66986625	7.10191102	12.51502596	1.40643016	3.85732947	10.56604035	3.68797116	1.23911957	11.00965578	-9.28740359	-3.89751552	13.18744417	-1.68871638	1.24041264	11.39763065	2.79583914	-1.43291699	13.11519532	-6.02440812	11.41102514	5.33118220	0.22885133	11.20896984
4481	44.80000000	11.35566312	-0.75201541	6.91751144	12.07858428	0.68412635	3.76611559	10.27833521	4.93704280	0.18327282	9.71438080	-6.93056199	-4.98134698	13.40950815	-1.11865218	1.45647609	11.26235956	2.32164015	-1.47438914	11.63560029	-7.11864141	10.34585837	5.45661076	0.37334683	10.89583634
4482	44.81000000	10.99312907	-0.94432531	6.72795780	11.30884161	-0.10185146	3.69952774	9.90227079	3.84978891	-0.63492763	9.07318221	-2.82561727	-3.15206840	13.74136034	-0.54021728	1.21175370	11.18168496	1.94579020	-1.48970511	9.35358777	-4.50874148	10.05316519	5.63797964	0.71936912	10.63585945
